<svg width="487" height="487" viewBox="0 0 487 487" fill="none" xmlns="http://www.w3.org/2000/svg">
<mask id="path-1-inside-1_410_650" fill="white">
<path d="M120.19 119.624L122.073 117.71L130.403 126.333L128.626 128.064L120.19 119.624ZM118.319 121.535L126.902 129.893C126.315 130.487 125.743 131.091 125.203 131.758L116.496 123.518L118.319 121.535ZM124.025 115.946L125.98 114.14L133.997 123.015L132.176 124.688L124.025 115.946ZM114.658 125.392L123.498 133.497L121.825 135.355L112.882 127.39L114.658 125.392ZM127.968 112.352L129.983 110.614L137.767 119.722L135.888 121.339L127.968 112.352ZM111.128 129.369L120.191 137.203C119.64 137.83 119.119 138.463 118.571 139.047L109.388 131.343L111.128 129.369ZM132.019 108.899C132.696 108.322 133.394 107.769 134.075 107.206L141.585 116.556L139.662 118.114L132.019 108.899ZM107.699 133.459L116.999 141.019L115.456 142.941L106.057 135.591C106.586 134.829 107.125 134.107 107.696 133.446L107.699 133.459ZM136.171 105.559L138.287 103.934L145.503 113.504L143.524 115.007L136.171 105.559ZM104.411 137.653L113.954 144.964L112.468 146.941L102.822 139.827L104.411 137.653ZM140.431 102.359L142.595 100.807L149.514 110.583L147.494 112.04L140.431 102.359ZM101.246 141.941L110.995 148.915L109.566 150.947L99.7169 144.127L101.246 141.941ZM144.788 99.2602L146.996 97.7665L153.618 107.749L151.55 109.135L144.788 99.2602ZM98.188 146.313L108.15 152.976L106.787 155.047L96.7258 148.537C97.2152 147.786 97.7082 147.048 98.2152 146.362L98.188 146.313ZM149.201 96.3157L151.46 94.9069L157.768 105.086C157.069 105.528 156.366 105.956 155.67 106.41L149.201 96.3157ZM95.297 150.781L105.458 157.137C105.011 157.835 104.58 158.542 104.15 159.25L93.9051 153.057L95.297 150.781ZM153.739 93.521C154.504 93.0622 155.269 92.6034 156.041 92.1709L162.023 102.551C161.299 102.956 160.593 103.371 159.877 103.802L153.739 93.521ZM92.5299 155.343L102.887 161.378L101.649 163.543L91.2178 157.654L92.5299 155.343ZM158.42 90.8427L160.767 89.5514L166.418 100.119L164.241 101.308L158.42 90.8427ZM89.9812 159.931L100.508 165.653C100.111 166.379 99.7268 167.103 99.3461 167.839L88.7086 162.231C89.0761 161.498 89.5129 160.761 89.9391 159.984L89.9812 159.931ZM163.117 88.2732L165.511 87.0538L170.841 97.7914L168.62 98.9221L163.117 88.2732ZM87.4792 164.746L98.1727 170.141L97.0797 172.323L86.29 167.094L87.4792 164.746ZM167.874 85.9835L170.319 84.8491L175.295 95.738L173.054 96.7897L167.874 85.9835ZM85.1553 169.541L96.0115 174.597L94.9756 176.834L84.0363 171.941L85.1553 169.541ZM172.745 83.748L175.198 82.696L179.859 93.7256L177.574 94.7187L172.745 83.748ZM82.9779 174.41L93.9837 179.13L93.0312 181.415L81.9458 176.872L82.9779 174.41ZM177.671 81.6668L180.224 80.6726L184.531 91.8535C183.763 92.1439 182.985 92.4509 182.224 92.7676L177.671 81.6668ZM80.9567 179.336L92.1121 183.719C91.8078 184.478 91.5175 185.288 91.2228 186.03L80.0141 181.816C80.3034 180.949 80.6296 180.114 80.9462 179.296L80.9567 179.336ZM182.656 79.7531L185.227 78.8246L189.189 90.1402L186.848 90.9789L182.656 79.7531ZM79.1338 184.265L90.4186 188.29L89.6354 190.628L78.2974 186.773C78.4981 185.943 78.7813 185.106 79.1338 184.265ZM187.735 77.9269L190.331 77.0905L193.941 88.5144L191.579 89.2742L187.735 77.9269ZM77.4109 189.252L88.8119 192.921L88.0394 195.299L76.5947 191.782C76.8323 190.985 77.0848 190.086 77.3689 189.305L77.4109 189.252ZM192.821 76.2823L195.451 75.5775L198.71 87.1097L196.317 87.7511L192.821 76.2823ZM75.8645 194.318L87.3625 197.665C87.138 198.459 86.8994 199.199 86.7022 200.041L75.1413 196.88C75.3228 196.084 75.5726 195.228 75.8225 194.372L75.8645 194.318ZM197.969 74.8184L200.599 74.1135L203.503 85.7408L200.935 86.4149L197.969 74.8184ZM74.4646 199.458L86.0621 202.44C85.8508 203.23 85.6561 204.029 85.465 204.842L73.8142 202.029C73.979 201.223 74.199 200.361 74.4226 199.511L74.4646 199.458ZM203.133 73.5754L205.723 72.9803L208.281 84.6861L205.85 85.239L203.133 73.5754ZM73.1683 204.669L84.8557 207.303L84.335 209.726L72.6003 207.232C72.7879 206.406 72.9781 205.537 73.1683 204.669ZM208.313 72.4412L210.993 71.9205L213.176 83.6987L210.737 84.1691L208.313 72.4412ZM72.0834 209.879L83.8441 212.155L83.3962 214.587L71.5629 212.514L72.0834 209.879ZM213.565 71.471L216.197 71.0337L217.965 82.8948C217.155 83.0273 216.328 83.1502 215.508 83.2995L213.565 71.471ZM71.1643 215.13L82.9517 217.033L82.567 219.49L70.7131 217.76C70.9523 216.864 71.0171 216.001 71.1643 215.13ZM218.83 70.6525L221.473 70.3107L222.951 82.1932L220.49 82.5848L218.83 70.6525ZM70.3873 220.385L82.2708 221.909C82.1691 222.74 82.064 223.558 81.9755 224.385L70.0545 222.984C70.1692 222.149 70.2734 221.276 70.3908 220.398L70.3873 220.385ZM224.12 69.9821L226.771 69.7228L227.857 81.6681L225.401 81.9175L224.12 69.9821ZM69.7893 225.677L81.7066 226.854L81.4806 229.325L69.5328 228.297C69.5616 227.458 69.7017 226.56 69.7893 225.677ZM229.433 69.503L232.092 69.3261L232.828 81.2806L230.351 81.4511L229.433 69.503ZM69.35 230.982L81.2976 231.798C81.2354 232.619 81.1899 233.448 81.1444 234.278L69.1865 233.634C69.2311 232.748 69.3283 231.848 69.35 230.982ZM234.745 69.1791L237.409 69.0715L237.799 81.0483L235.317 81.1496L234.745 69.1791ZM69.109 236.291L81.0737 236.75C81.0378 237.563 81.0222 238.399 81.003 239.222L69.0184 238.951C68.9936 238.07 69.025 237.187 69.109 236.291ZM240.113 69.0095L242.785 68.9844L242.782 80.9678L240.305 80.9831L240.113 69.0095ZM68.9408 241.608L80.9191 241.697C80.9166 242.53 80.9141 243.362 80.9212 244.178L68.9361 244.274C68.9412 243.398 68.9296 242.513 68.9408 241.608ZM245.424 68.9962C246.313 68.9977 247.195 69.0291 248.087 69.0439L247.731 81.0233L245.249 80.9693L245.424 68.9962ZM68.9613 246.946L80.94 246.668C80.9638 247.493 80.9876 248.319 81.0245 249.141L69.0345 249.534C69.0309 248.731 69.0027 247.837 68.978 246.955L68.9613 246.946ZM250.728 69.1679L253.373 69.3051L252.673 81.2639L250.187 81.1405L250.728 69.1679ZM69.1633 252.277L81.1161 251.639L81.2734 254.121L69.327 254.939C69.2768 254.051 69.2222 253.163 69.1633 252.277ZM256.019 69.4984L258.672 69.718L257.637 81.6395L255.169 81.4267L256.019 69.4984ZM69.5898 257.604L81.5395 256.587C81.6063 257.415 81.6731 258.243 81.7661 259.064L69.8324 260.245L69.5898 257.604ZM261.374 69.9665L264.005 70.2624L262.57 82.1642L260.098 81.8821L261.374 69.9665ZM70.075 262.887L81.9761 261.531C82.0692 262.352 82.1754 263.169 82.2816 263.986L70.4071 265.547C70.2844 264.668 70.1738 263.782 70.075 262.887ZM266.674 70.6469L269.313 71.0253L267.476 82.7952L265.029 82.4499L266.674 70.6469ZM70.762 268.187L82.61 266.422C82.7294 267.236 82.8619 268.046 82.9848 268.873L71.1625 270.786L70.762 268.187ZM271.886 71.4214L274.503 71.8761L272.351 83.7305C271.536 83.5824 270.734 83.4307 269.909 83.2992L271.886 71.4214ZM71.6235 273.454L83.4132 271.366C83.5589 272.173 83.7081 272.993 83.867 273.796L72.1003 276.075C71.937 275.202 71.7737 274.33 71.6235 273.454ZM277.131 72.3703L279.729 72.9145L277.228 84.6228L274.808 84.1153L277.131 72.3703ZM72.6297 278.682L84.347 276.219C84.562 277.021 84.6981 277.845 84.8868 278.654L73.1986 281.279C73.0017 280.438 72.8121 279.573 72.6297 278.682ZM282.309 73.4921C283.177 73.6823 284.036 73.8891 284.899 74.1091L282.009 85.7381L279.598 85.1577L282.309 73.4921ZM73.8008 283.894L85.4528 281.082C85.6678 281.885 85.8827 282.687 86.0942 283.476L74.4916 286.472C74.223 285.628 74.0167 284.753 73.8008 283.894ZM287.477 74.7858L290.039 75.509L286.814 87.0446L284.425 86.3878L287.477 74.7858ZM75.1297 289.064L86.6866 285.897C86.9015 286.699 87.1165 287.502 87.3315 288.304L75.8205 291.642L75.1297 289.064ZM292.65 76.205L295.172 76.9387L291.583 88.3747L289.205 87.6022L292.65 76.205ZM76.6296 294.188L88.0781 290.67C88.2931 291.472 88.5739 292.257 88.8248 293.035L77.4256 296.738C77.157 295.894 76.8885 295.049 76.6296 294.188ZM297.661 77.8085L300.172 78.6581L296.241 89.9743L293.902 89.1912L297.661 77.8085ZM78.2742 299.274L89.6109 295.39C89.8258 296.193 90.1592 296.963 90.44 297.748L79.1622 301.799C78.8577 300.978 78.5559 300.115 78.2742 299.274ZM302.747 79.533L305.223 80.4624L300.949 91.6589L298.629 90.7863L302.747 79.533ZM80.0731 304.304L91.2918 300.085C91.5822 300.853 91.8761 301.635 92.1796 302.399L81.0365 306.795L80.0731 304.304ZM307.631 81.4524L310.099 82.4547L305.477 93.5613L303.195 92.6219L307.631 81.4524ZM82.0394 309.275L93.1235 304.712C93.4271 305.476 93.7604 306.247 94.0771 307.008L83.0818 311.744C82.7223 310.929 82.3749 310.106 82.0394 309.275ZM312.551 83.5034L314.987 84.5987L310.015 95.503L307.744 94.4479L312.551 83.5034ZM84.1434 314.181L95.0833 309.29C95.4263 310.044 95.7692 310.798 96.1254 311.548L85.2647 316.629L84.1434 314.181ZM317.401 85.7142L319.799 86.8761L314.503 97.6274L312.268 96.5485L317.401 85.7142ZM86.4183 319.041L97.1938 313.799L98.2981 316.027L87.608 321.429C87.1983 320.636 86.8149 319.837 86.4183 319.041ZM322.188 88.1109L324.55 89.3527L318.925 99.9245C318.185 99.5307 317.462 99.1465 316.729 98.779L322.188 88.1109ZM88.8406 323.819L99.4208 318.165C99.8033 318.908 100.195 319.635 100.587 320.362L90.0889 326.163C89.6696 325.387 89.2467 324.599 88.8406 323.819ZM326.88 90.5753L329.204 91.8838L323.252 102.289C322.535 101.875 321.818 101.461 321.091 101.064L326.88 90.5753ZM91.3863 328.48L101.817 322.584C102.219 323.294 102.624 324.017 103.056 324.733L92.7101 330.79C92.268 330.034 91.8223 329.265 91.3899 328.493L91.3863 328.48ZM331.509 93.2257L333.795 94.601L327.522 104.81L325.351 103.546L331.509 93.2257ZM94.0925 333.055L104.34 326.842C104.768 327.545 105.209 328.244 105.637 328.947L95.5048 335.327L94.0925 333.055ZM336.022 96.0201L338.256 97.4656L331.693 107.485L329.595 106.13L336.022 96.0201ZM96.9171 337.599L106.967 331.072C107.408 331.771 107.876 332.463 108.327 333.146L98.388 339.827C97.8933 339.085 97.388 338.305 96.9171 337.599ZM340.51 98.9339L342.692 100.45L335.818 110.256C335.14 109.776 334.448 109.298 333.76 108.834L340.51 98.9339ZM99.895 342.031L109.728 335.167C110.193 335.851 110.67 336.526 111.159 337.194L101.439 344.268C100.904 343.481 100.452 342.742 99.895 342.031ZM344.872 102.008C345.587 102.521 346.29 103.038 347.016 103.591L339.831 113.185C339.162 112.687 338.492 112.134 337.828 111.706L344.872 102.008ZM103.026 346.352L112.647 339.22C113.147 339.876 113.637 340.548 114.137 341.204L104.628 348.488C104.061 347.794 103.527 347.063 103 346.359L103.026 346.352ZM349.14 105.206L351.229 106.846L343.757 116.207C343.11 115.689 342.444 115.149 341.799 114.687L349.14 105.206ZM106.235 350.595L115.637 343.17C116.146 343.809 116.672 344.457 117.195 345.093L107.945 352.66C107.339 351.977 106.789 351.292 106.235 350.595ZM353.302 108.532C353.989 109.095 354.662 109.662 355.339 110.242L347.579 119.37C346.955 118.832 346.319 118.298 345.738 117.762L353.302 108.532ZM109.622 354.762L118.83 347.037C119.358 347.676 119.894 348.307 120.437 348.932L111.386 356.771C110.751 356.081 110.174 355.404 109.622 354.762ZM357.353 111.972C358.03 112.551 358.684 113.152 359.352 113.748L351.316 122.64C350.703 122.085 350.096 121.557 349.465 120.993L357.353 111.972ZM113.101 358.75L122.016 350.722C122.562 351.338 123.12 351.949 123.679 352.561L114.871 360.672C114.286 360.068 113.687 359.411 113.101 358.75ZM361.314 115.548C361.955 116.152 362.61 116.752 363.215 117.379L354.931 126.027L353.069 124.341L361.314 115.548ZM116.719 362.729L125.406 354.48C125.974 355.075 126.555 355.667 127.136 356.258L118.571 364.643C117.931 363.941 117.31 363.304 116.719 362.729ZM365.145 119.216L365.377 119.45C365.951 120.015 366.492 120.561 367.036 121.12L358.487 129.515L356.962 127.978L356.734 127.757L365.145 119.216ZM128.846 357.957L130.623 359.694L122.321 368.276C121.677 367.659 121.045 367.039 120.414 366.419L128.846 357.957ZM360.205 131.296L368.889 123.034L370.705 124.972L361.904 133.11C361.306 132.509 360.773 131.891 360.205 131.296ZM132.418 361.342L134.276 363.015L126.24 371.906L124.278 370.106L132.418 361.342ZM363.552 134.896L372.467 126.868L374.228 128.863L365.282 136.829L363.552 134.896ZM136.13 364.675C136.754 365.213 137.377 365.75 137.978 366.308L130.204 375.44C129.531 374.873 128.867 374.29 128.186 373.697L136.13 364.675ZM366.849 138.623L376.056 130.897C376.632 131.574 377.196 132.255 377.759 132.936L368.512 140.517C367.898 139.962 367.359 139.317 366.836 138.682L366.849 138.623ZM139.898 367.951L141.827 369.52L134.338 378.872C133.638 378.312 132.955 377.762 132.265 377.186L139.898 367.951ZM369.97 142.537L379.364 135.086C379.917 135.783 380.457 136.484 381.001 137.199L371.558 144.466C370.992 143.828 370.492 143.172 369.97 142.537ZM143.775 371.056L145.742 372.559L138.551 382.127C137.832 381.601 137.146 381.094 136.43 380.524L143.775 371.056ZM372.995 146.463L382.612 139.318C383.143 140.036 383.674 140.754 384.191 141.475L374.462 148.466L372.995 146.463ZM147.795 374.011C148.464 374.509 149.143 374.989 149.818 375.457L142.876 385.324C142.147 384.815 141.431 384.301 140.712 383.775L147.795 374.011ZM375.946 150.479L385.78 143.615L387.287 145.819L377.351 152.513C376.835 151.848 376.371 151.169 375.894 150.493L375.946 150.479ZM151.846 376.873L153.908 378.252L147.311 388.252C146.576 387.772 145.828 387.24 145.11 386.77L151.846 376.873ZM378.675 154.612L388.705 148.061C389.19 148.82 389.672 149.565 390.143 150.326L380.011 156.706C379.57 156.007 379.129 155.308 378.675 154.612ZM155.935 379.612C156.633 380.059 157.331 380.506 158.039 380.937L151.735 391.084L149.482 389.672L155.935 379.612ZM381.325 158.821L391.556 152.598C392.028 153.36 392.473 154.129 392.932 154.894L382.603 160.96C382.185 160.24 381.753 159.524 381.325 158.821ZM160.161 382.229L162.299 383.475L156.344 393.867L154.035 392.512L160.161 382.229ZM383.842 163.109L394.269 157.2L395.573 159.543L385.057 165.279L383.842 163.109ZM164.47 384.683C165.187 385.097 165.91 385.482 166.65 385.875L161.021 396.434L158.671 395.189L164.47 384.683ZM386.184 167.486L396.799 161.907C397.209 162.699 397.618 163.492 398.015 164.288L387.328 169.703C386.998 168.945 386.62 168.215 386.184 167.486ZM168.846 387.021L171.052 388.15L165.752 398.888L163.357 397.683L168.846 387.021ZM388.485 171.916L399.244 166.665C399.641 167.461 400.027 168.274 400.398 169.077L389.55 174.154L388.485 171.916ZM173.233 389.243L175.487 390.288L170.515 401.193L168.098 400.064L173.233 389.243ZM390.596 176.426L401.515 171.512C401.886 172.315 402.246 173.135 402.59 173.945L391.598 178.695C391.269 177.937 390.939 177.18 390.596 176.426ZM177.81 391.329L180.089 392.312L175.456 403.379L173.004 402.33L177.81 391.329ZM392.618 180.973L403.685 176.4C404.033 177.224 404.363 178.037 404.685 178.867L393.541 183.263C393.189 182.526 392.829 181.762 392.618 180.973ZM182.374 393.208C183.132 393.512 183.943 393.803 184.658 394.104L180.367 405.291C179.536 404.978 178.715 404.648 177.893 404.319L182.374 393.208ZM394.383 185.561L405.581 181.32C405.906 182.163 406.214 182.997 406.523 183.887L395.245 187.938C394.968 187.166 394.687 186.382 394.397 185.614L394.383 185.561ZM186.978 394.977L189.29 395.767L185.369 407.123L182.873 406.227L186.978 394.977ZM396.074 190.295L407.407 186.399L408.27 188.987L396.874 192.703C396.609 191.872 396.338 191.071 396.074 190.295ZM191.646 396.616L193.998 397.395L190.408 408.831L187.874 408.002L191.646 396.616ZM397.607 195.016L409.065 191.481L409.849 194.09L398.341 197.441C398.099 196.59 397.851 195.768 397.607 195.016ZM196.371 398.099C197.155 398.34 197.909 398.575 198.741 398.789L195.487 410.318L192.938 409.592L196.371 398.099ZM399.064 199.771L410.605 196.594C410.834 197.449 411.066 198.317 411.309 199.225L399.707 202.221C399.491 201.363 399.279 200.573 399.064 199.771ZM201.176 399.405L203.568 400.019L200.679 411.648L198.077 410.935L201.176 399.405ZM400.246 204.6L411.894 201.775C412.123 202.63 412.352 203.485 412.502 204.361L400.821 207.011C400.632 206.202 400.444 205.393 400.246 204.6ZM205.934 400.64C206.733 400.834 207.542 401.012 208.347 401.177L205.846 412.886C204.977 412.695 204.108 412.505 203.249 412.298L205.934 400.64ZM401.397 209.423L413.127 206.956L413.674 209.629L401.908 211.908C401.682 211.066 401.53 210.289 401.344 209.437L401.397 209.423ZM210.784 401.694L213.206 402.159L211.019 413.938L208.405 413.44L210.784 401.694ZM402.298 214.313L414.084 212.212C414.258 213.105 414.408 213.981 414.535 214.84L402.716 216.766C402.58 215.943 402.447 215.133 402.298 214.313ZM215.647 402.59L218.082 402.995L216.263 414.831L213.64 414.406L215.647 402.59ZM403.091 219.218L414.939 217.453C415.072 218.319 415.196 219.202 415.307 220.089L403.432 221.649C403.307 220.865 403.214 220.045 403.091 219.218ZM220.545 403.35L222.998 403.666L221.534 415.561C220.66 415.457 219.769 415.343 218.889 415.213L220.545 403.35ZM403.722 224.152L415.616 222.769C415.723 223.643 415.821 224.533 415.902 225.413L403.988 226.618C403.922 225.79 403.842 224.965 403.748 224.145L403.722 224.152ZM225.405 403.965L227.87 404.221L226.831 416.129L224.181 415.867L225.405 403.965ZM404.241 229.087L416.174 228.061C416.255 228.942 416.326 229.839 416.381 230.726L404.438 231.558L404.241 229.087ZM230.386 404.407L232.87 404.573L232.143 416.539L229.484 416.349L230.386 404.407ZM404.648 234.025L416.607 233.358C416.661 234.246 416.703 235.137 416.744 236.028L404.68 236.512C404.669 235.683 404.625 234.835 404.582 234.043L404.648 234.025ZM235.412 404.695L237.891 404.792L237.517 416.762C236.638 416.744 235.739 416.703 234.853 416.658L235.412 404.695ZM404.788 239.02L416.763 238.73C416.788 239.611 416.803 240.509 416.815 241.394L404.833 241.503C404.816 240.648 404.805 239.819 404.788 239.02ZM240.313 404.89L242.801 404.915L242.781 416.888C241.896 416.9 241.017 416.882 240.125 416.867L240.313 404.89ZM404.835 243.984L416.81 244.06C416.808 244.949 416.794 245.841 416.776 246.72L404.798 246.475C404.807 245.613 404.826 244.79 404.828 243.958L404.835 243.984ZM404.754 248.94L416.728 249.383C416.696 250.265 416.652 251.151 416.607 252.037L404.643 251.422C404.656 250.573 404.688 249.747 404.717 248.908L404.754 248.94ZM404.487 253.889L416.447 254.702C416.386 255.578 416.328 256.468 416.254 257.348L404.293 256.323C404.346 255.52 404.408 254.7 404.453 253.87L404.487 253.889ZM404.091 258.83L416.008 260.007C415.921 260.891 415.833 261.774 415.729 262.648L403.822 261.299L404.091 258.83ZM403.516 263.735L415.403 265.273C415.286 266.15 415.168 267.027 415.038 267.908L403.172 266.238C403.279 265.377 403.388 264.573 403.516 263.735ZM402.816 268.645L414.603 270.548L414.165 273.174L402.336 271.114C402.523 270.289 402.655 269.464 402.79 268.652L402.816 268.645ZM401.953 273.528L413.724 275.788C413.56 276.649 413.386 277.528 413.196 278.396L401.448 275.905C401.604 275.117 401.779 274.351 401.914 273.539L401.953 273.528ZM400.942 278.381L412.639 280.999L412.035 283.585L400.391 280.798L400.942 278.381ZM399.794 283.2L411.401 286.165C411.181 287.028 410.961 287.89 410.685 288.754L399.128 285.606L399.794 283.2ZM398.497 287.988L410.001 291.305C409.765 292.158 409.511 293.001 409.271 293.841L397.817 290.341L398.497 287.988ZM397.044 292.719L408.445 296.389C408.179 297.235 407.899 298.086 407.616 298.923L396.265 295.071C396.509 294.3 396.764 293.513 397.018 292.726L397.044 292.719ZM395.471 297.37L406.756 301.395L405.846 303.894L394.615 299.7C394.87 298.969 395.158 298.201 395.429 297.423L395.471 297.37Z"/>
</mask>
<path d="M120.19 119.624L122.073 117.71L130.403 126.333L128.626 128.064L120.19 119.624ZM118.319 121.535L126.902 129.893C126.315 130.487 125.743 131.091 125.203 131.758L116.496 123.518L118.319 121.535ZM124.025 115.946L125.98 114.14L133.997 123.015L132.176 124.688L124.025 115.946ZM114.658 125.392L123.498 133.497L121.825 135.355L112.882 127.39L114.658 125.392ZM127.968 112.352L129.983 110.614L137.767 119.722L135.888 121.339L127.968 112.352ZM111.128 129.369L120.191 137.203C119.64 137.83 119.119 138.463 118.571 139.047L109.388 131.343L111.128 129.369ZM132.019 108.899C132.696 108.322 133.394 107.769 134.075 107.206L141.585 116.556L139.662 118.114L132.019 108.899ZM107.699 133.459L116.999 141.019L115.456 142.941L106.057 135.591C106.586 134.829 107.125 134.107 107.696 133.446L107.699 133.459ZM136.171 105.559L138.287 103.934L145.503 113.504L143.524 115.007L136.171 105.559ZM104.411 137.653L113.954 144.964L112.468 146.941L102.822 139.827L104.411 137.653ZM140.431 102.359L142.595 100.807L149.514 110.583L147.494 112.04L140.431 102.359ZM101.246 141.941L110.995 148.915L109.566 150.947L99.7169 144.127L101.246 141.941ZM144.788 99.2602L146.996 97.7665L153.618 107.749L151.55 109.135L144.788 99.2602ZM98.188 146.313L108.15 152.976L106.787 155.047L96.7258 148.537C97.2152 147.786 97.7082 147.048 98.2152 146.362L98.188 146.313ZM149.201 96.3157L151.46 94.9069L157.768 105.086C157.069 105.528 156.366 105.956 155.67 106.41L149.201 96.3157ZM95.297 150.781L105.458 157.137C105.011 157.835 104.58 158.542 104.15 159.25L93.9051 153.057L95.297 150.781ZM153.739 93.521C154.504 93.0622 155.269 92.6034 156.041 92.1709L162.023 102.551C161.299 102.956 160.593 103.371 159.877 103.802L153.739 93.521ZM92.5299 155.343L102.887 161.378L101.649 163.543L91.2178 157.654L92.5299 155.343ZM158.42 90.8427L160.767 89.5514L166.418 100.119L164.241 101.308L158.42 90.8427ZM89.9812 159.931L100.508 165.653C100.111 166.379 99.7268 167.103 99.3461 167.839L88.7086 162.231C89.0761 161.498 89.5129 160.761 89.9391 159.984L89.9812 159.931ZM163.117 88.2732L165.511 87.0538L170.841 97.7914L168.62 98.9221L163.117 88.2732ZM87.4792 164.746L98.1727 170.141L97.0797 172.323L86.29 167.094L87.4792 164.746ZM167.874 85.9835L170.319 84.8491L175.295 95.738L173.054 96.7897L167.874 85.9835ZM85.1553 169.541L96.0115 174.597L94.9756 176.834L84.0363 171.941L85.1553 169.541ZM172.745 83.748L175.198 82.696L179.859 93.7256L177.574 94.7187L172.745 83.748ZM82.9779 174.41L93.9837 179.13L93.0312 181.415L81.9458 176.872L82.9779 174.41ZM177.671 81.6668L180.224 80.6726L184.531 91.8535C183.763 92.1439 182.985 92.4509 182.224 92.7676L177.671 81.6668ZM80.9567 179.336L92.1121 183.719C91.8078 184.478 91.5175 185.288 91.2228 186.03L80.0141 181.816C80.3034 180.949 80.6296 180.114 80.9462 179.296L80.9567 179.336ZM182.656 79.7531L185.227 78.8246L189.189 90.1402L186.848 90.9789L182.656 79.7531ZM79.1338 184.265L90.4186 188.29L89.6354 190.628L78.2974 186.773C78.4981 185.943 78.7813 185.106 79.1338 184.265ZM187.735 77.9269L190.331 77.0905L193.941 88.5144L191.579 89.2742L187.735 77.9269ZM77.4109 189.252L88.8119 192.921L88.0394 195.299L76.5947 191.782C76.8323 190.985 77.0848 190.086 77.3689 189.305L77.4109 189.252ZM192.821 76.2823L195.451 75.5775L198.71 87.1097L196.317 87.7511L192.821 76.2823ZM75.8645 194.318L87.3625 197.665C87.138 198.459 86.8994 199.199 86.7022 200.041L75.1413 196.88C75.3228 196.084 75.5726 195.228 75.8225 194.372L75.8645 194.318ZM197.969 74.8184L200.599 74.1135L203.503 85.7408L200.935 86.4149L197.969 74.8184ZM74.4646 199.458L86.0621 202.44C85.8508 203.23 85.6561 204.029 85.465 204.842L73.8142 202.029C73.979 201.223 74.199 200.361 74.4226 199.511L74.4646 199.458ZM203.133 73.5754L205.723 72.9803L208.281 84.6861L205.85 85.239L203.133 73.5754ZM73.1683 204.669L84.8557 207.303L84.335 209.726L72.6003 207.232C72.7879 206.406 72.9781 205.537 73.1683 204.669ZM208.313 72.4412L210.993 71.9205L213.176 83.6987L210.737 84.1691L208.313 72.4412ZM72.0834 209.879L83.8441 212.155L83.3962 214.587L71.5629 212.514L72.0834 209.879ZM213.565 71.471L216.197 71.0337L217.965 82.8948C217.155 83.0273 216.328 83.1502 215.508 83.2995L213.565 71.471ZM71.1643 215.13L82.9517 217.033L82.567 219.49L70.7131 217.76C70.9523 216.864 71.0171 216.001 71.1643 215.13ZM218.83 70.6525L221.473 70.3107L222.951 82.1932L220.49 82.5848L218.83 70.6525ZM70.3873 220.385L82.2708 221.909C82.1691 222.74 82.064 223.558 81.9755 224.385L70.0545 222.984C70.1692 222.149 70.2734 221.276 70.3908 220.398L70.3873 220.385ZM224.12 69.9821L226.771 69.7228L227.857 81.6681L225.401 81.9175L224.12 69.9821ZM69.7893 225.677L81.7066 226.854L81.4806 229.325L69.5328 228.297C69.5616 227.458 69.7017 226.56 69.7893 225.677ZM229.433 69.503L232.092 69.3261L232.828 81.2806L230.351 81.4511L229.433 69.503ZM69.35 230.982L81.2976 231.798C81.2354 232.619 81.1899 233.448 81.1444 234.278L69.1865 233.634C69.2311 232.748 69.3283 231.848 69.35 230.982ZM234.745 69.1791L237.409 69.0715L237.799 81.0483L235.317 81.1496L234.745 69.1791ZM69.109 236.291L81.0737 236.75C81.0378 237.563 81.0222 238.399 81.003 239.222L69.0184 238.951C68.9936 238.07 69.025 237.187 69.109 236.291ZM240.113 69.0095L242.785 68.9844L242.782 80.9678L240.305 80.9831L240.113 69.0095ZM68.9408 241.608L80.9191 241.697C80.9166 242.53 80.9141 243.362 80.9212 244.178L68.9361 244.274C68.9412 243.398 68.9296 242.513 68.9408 241.608ZM245.424 68.9962C246.313 68.9977 247.195 69.0291 248.087 69.0439L247.731 81.0233L245.249 80.9693L245.424 68.9962ZM68.9613 246.946L80.94 246.668C80.9638 247.493 80.9876 248.319 81.0245 249.141L69.0345 249.534C69.0309 248.731 69.0027 247.837 68.978 246.955L68.9613 246.946ZM250.728 69.1679L253.373 69.3051L252.673 81.2639L250.187 81.1405L250.728 69.1679ZM69.1633 252.277L81.1161 251.639L81.2734 254.121L69.327 254.939C69.2768 254.051 69.2222 253.163 69.1633 252.277ZM256.019 69.4984L258.672 69.718L257.637 81.6395L255.169 81.4267L256.019 69.4984ZM69.5898 257.604L81.5395 256.587C81.6063 257.415 81.6731 258.243 81.7661 259.064L69.8324 260.245L69.5898 257.604ZM261.374 69.9665L264.005 70.2624L262.57 82.1642L260.098 81.8821L261.374 69.9665ZM70.075 262.887L81.9761 261.531C82.0692 262.352 82.1754 263.169 82.2816 263.986L70.4071 265.547C70.2844 264.668 70.1738 263.782 70.075 262.887ZM266.674 70.6469L269.313 71.0253L267.476 82.7952L265.029 82.4499L266.674 70.6469ZM70.762 268.187L82.61 266.422C82.7294 267.236 82.8619 268.046 82.9848 268.873L71.1625 270.786L70.762 268.187ZM271.886 71.4214L274.503 71.8761L272.351 83.7305C271.536 83.5824 270.734 83.4307 269.909 83.2992L271.886 71.4214ZM71.6235 273.454L83.4132 271.366C83.5589 272.173 83.7081 272.993 83.867 273.796L72.1003 276.075C71.937 275.202 71.7737 274.33 71.6235 273.454ZM277.131 72.3703L279.729 72.9145L277.228 84.6228L274.808 84.1153L277.131 72.3703ZM72.6297 278.682L84.347 276.219C84.562 277.021 84.6981 277.845 84.8868 278.654L73.1986 281.279C73.0017 280.438 72.8121 279.573 72.6297 278.682ZM282.309 73.4921C283.177 73.6823 284.036 73.8891 284.899 74.1091L282.009 85.7381L279.598 85.1577L282.309 73.4921ZM73.8008 283.894L85.4528 281.082C85.6678 281.885 85.8827 282.687 86.0942 283.476L74.4916 286.472C74.223 285.628 74.0167 284.753 73.8008 283.894ZM287.477 74.7858L290.039 75.509L286.814 87.0446L284.425 86.3878L287.477 74.7858ZM75.1297 289.064L86.6866 285.897C86.9015 286.699 87.1165 287.502 87.3315 288.304L75.8205 291.642L75.1297 289.064ZM292.65 76.205L295.172 76.9387L291.583 88.3747L289.205 87.6022L292.65 76.205ZM76.6296 294.188L88.0781 290.67C88.2931 291.472 88.5739 292.257 88.8248 293.035L77.4256 296.738C77.157 295.894 76.8885 295.049 76.6296 294.188ZM297.661 77.8085L300.172 78.6581L296.241 89.9743L293.902 89.1912L297.661 77.8085ZM78.2742 299.274L89.6109 295.39C89.8258 296.193 90.1592 296.963 90.44 297.748L79.1622 301.799C78.8577 300.978 78.5559 300.115 78.2742 299.274ZM302.747 79.533L305.223 80.4624L300.949 91.6589L298.629 90.7863L302.747 79.533ZM80.0731 304.304L91.2918 300.085C91.5822 300.853 91.8761 301.635 92.1796 302.399L81.0365 306.795L80.0731 304.304ZM307.631 81.4524L310.099 82.4547L305.477 93.5613L303.195 92.6219L307.631 81.4524ZM82.0394 309.275L93.1235 304.712C93.4271 305.476 93.7604 306.247 94.0771 307.008L83.0818 311.744C82.7223 310.929 82.3749 310.106 82.0394 309.275ZM312.551 83.5034L314.987 84.5987L310.015 95.503L307.744 94.4479L312.551 83.5034ZM84.1434 314.181L95.0833 309.29C95.4263 310.044 95.7692 310.798 96.1254 311.548L85.2647 316.629L84.1434 314.181ZM317.401 85.7142L319.799 86.8761L314.503 97.6274L312.268 96.5485L317.401 85.7142ZM86.4183 319.041L97.1938 313.799L98.2981 316.027L87.608 321.429C87.1983 320.636 86.8149 319.837 86.4183 319.041ZM322.188 88.1109L324.55 89.3527L318.925 99.9245C318.185 99.5307 317.462 99.1465 316.729 98.779L322.188 88.1109ZM88.8406 323.819L99.4208 318.165C99.8033 318.908 100.195 319.635 100.587 320.362L90.0889 326.163C89.6696 325.387 89.2467 324.599 88.8406 323.819ZM326.88 90.5753L329.204 91.8838L323.252 102.289C322.535 101.875 321.818 101.461 321.091 101.064L326.88 90.5753ZM91.3863 328.48L101.817 322.584C102.219 323.294 102.624 324.017 103.056 324.733L92.7101 330.79C92.268 330.034 91.8223 329.265 91.3899 328.493L91.3863 328.48ZM331.509 93.2257L333.795 94.601L327.522 104.81L325.351 103.546L331.509 93.2257ZM94.0925 333.055L104.34 326.842C104.768 327.545 105.209 328.244 105.637 328.947L95.5048 335.327L94.0925 333.055ZM336.022 96.0201L338.256 97.4656L331.693 107.485L329.595 106.13L336.022 96.0201ZM96.9171 337.599L106.967 331.072C107.408 331.771 107.876 332.463 108.327 333.146L98.388 339.827C97.8933 339.085 97.388 338.305 96.9171 337.599ZM340.51 98.9339L342.692 100.45L335.818 110.256C335.14 109.776 334.448 109.298 333.76 108.834L340.51 98.9339ZM99.895 342.031L109.728 335.167C110.193 335.851 110.67 336.526 111.159 337.194L101.439 344.268C100.904 343.481 100.452 342.742 99.895 342.031ZM344.872 102.008C345.587 102.521 346.29 103.038 347.016 103.591L339.831 113.185C339.162 112.687 338.492 112.134 337.828 111.706L344.872 102.008ZM103.026 346.352L112.647 339.22C113.147 339.876 113.637 340.548 114.137 341.204L104.628 348.488C104.061 347.794 103.527 347.063 103 346.359L103.026 346.352ZM349.14 105.206L351.229 106.846L343.757 116.207C343.11 115.689 342.444 115.149 341.799 114.687L349.14 105.206ZM106.235 350.595L115.637 343.17C116.146 343.809 116.672 344.457 117.195 345.093L107.945 352.66C107.339 351.977 106.789 351.292 106.235 350.595ZM353.302 108.532C353.989 109.095 354.662 109.662 355.339 110.242L347.579 119.37C346.955 118.832 346.319 118.298 345.738 117.762L353.302 108.532ZM109.622 354.762L118.83 347.037C119.358 347.676 119.894 348.307 120.437 348.932L111.386 356.771C110.751 356.081 110.174 355.404 109.622 354.762ZM357.353 111.972C358.03 112.551 358.684 113.152 359.352 113.748L351.316 122.64C350.703 122.085 350.096 121.557 349.465 120.993L357.353 111.972ZM113.101 358.75L122.016 350.722C122.562 351.338 123.12 351.949 123.679 352.561L114.871 360.672C114.286 360.068 113.687 359.411 113.101 358.75ZM361.314 115.548C361.955 116.152 362.61 116.752 363.215 117.379L354.931 126.027L353.069 124.341L361.314 115.548ZM116.719 362.729L125.406 354.48C125.974 355.075 126.555 355.667 127.136 356.258L118.571 364.643C117.931 363.941 117.31 363.304 116.719 362.729ZM365.145 119.216L365.377 119.45C365.951 120.015 366.492 120.561 367.036 121.12L358.487 129.515L356.962 127.978L356.734 127.757L365.145 119.216ZM128.846 357.957L130.623 359.694L122.321 368.276C121.677 367.659 121.045 367.039 120.414 366.419L128.846 357.957ZM360.205 131.296L368.889 123.034L370.705 124.972L361.904 133.11C361.306 132.509 360.773 131.891 360.205 131.296ZM132.418 361.342L134.276 363.015L126.24 371.906L124.278 370.106L132.418 361.342ZM363.552 134.896L372.467 126.868L374.228 128.863L365.282 136.829L363.552 134.896ZM136.13 364.675C136.754 365.213 137.377 365.75 137.978 366.308L130.204 375.44C129.531 374.873 128.867 374.29 128.186 373.697L136.13 364.675ZM366.849 138.623L376.056 130.897C376.632 131.574 377.196 132.255 377.759 132.936L368.512 140.517C367.898 139.962 367.359 139.317 366.836 138.682L366.849 138.623ZM139.898 367.951L141.827 369.52L134.338 378.872C133.638 378.312 132.955 377.762 132.265 377.186L139.898 367.951ZM369.97 142.537L379.364 135.086C379.917 135.783 380.457 136.484 381.001 137.199L371.558 144.466C370.992 143.828 370.492 143.172 369.97 142.537ZM143.775 371.056L145.742 372.559L138.551 382.127C137.832 381.601 137.146 381.094 136.43 380.524L143.775 371.056ZM372.995 146.463L382.612 139.318C383.143 140.036 383.674 140.754 384.191 141.475L374.462 148.466L372.995 146.463ZM147.795 374.011C148.464 374.509 149.143 374.989 149.818 375.457L142.876 385.324C142.147 384.815 141.431 384.301 140.712 383.775L147.795 374.011ZM375.946 150.479L385.78 143.615L387.287 145.819L377.351 152.513C376.835 151.848 376.371 151.169 375.894 150.493L375.946 150.479ZM151.846 376.873L153.908 378.252L147.311 388.252C146.576 387.772 145.828 387.24 145.11 386.77L151.846 376.873ZM378.675 154.612L388.705 148.061C389.19 148.82 389.672 149.565 390.143 150.326L380.011 156.706C379.57 156.007 379.129 155.308 378.675 154.612ZM155.935 379.612C156.633 380.059 157.331 380.506 158.039 380.937L151.735 391.084L149.482 389.672L155.935 379.612ZM381.325 158.821L391.556 152.598C392.028 153.36 392.473 154.129 392.932 154.894L382.603 160.96C382.185 160.24 381.753 159.524 381.325 158.821ZM160.161 382.229L162.299 383.475L156.344 393.867L154.035 392.512L160.161 382.229ZM383.842 163.109L394.269 157.2L395.573 159.543L385.057 165.279L383.842 163.109ZM164.47 384.683C165.187 385.097 165.91 385.482 166.65 385.875L161.021 396.434L158.671 395.189L164.47 384.683ZM386.184 167.486L396.799 161.907C397.209 162.699 397.618 163.492 398.015 164.288L387.328 169.703C386.998 168.945 386.62 168.215 386.184 167.486ZM168.846 387.021L171.052 388.15L165.752 398.888L163.357 397.683L168.846 387.021ZM388.485 171.916L399.244 166.665C399.641 167.461 400.027 168.274 400.398 169.077L389.55 174.154L388.485 171.916ZM173.233 389.243L175.487 390.288L170.515 401.193L168.098 400.064L173.233 389.243ZM390.596 176.426L401.515 171.512C401.886 172.315 402.246 173.135 402.59 173.945L391.598 178.695C391.269 177.937 390.939 177.18 390.596 176.426ZM177.81 391.329L180.089 392.312L175.456 403.379L173.004 402.33L177.81 391.329ZM392.618 180.973L403.685 176.4C404.033 177.224 404.363 178.037 404.685 178.867L393.541 183.263C393.189 182.526 392.829 181.762 392.618 180.973ZM182.374 393.208C183.132 393.512 183.943 393.803 184.658 394.104L180.367 405.291C179.536 404.978 178.715 404.648 177.893 404.319L182.374 393.208ZM394.383 185.561L405.581 181.32C405.906 182.163 406.214 182.997 406.523 183.887L395.245 187.938C394.968 187.166 394.687 186.382 394.397 185.614L394.383 185.561ZM186.978 394.977L189.29 395.767L185.369 407.123L182.873 406.227L186.978 394.977ZM396.074 190.295L407.407 186.399L408.27 188.987L396.874 192.703C396.609 191.872 396.338 191.071 396.074 190.295ZM191.646 396.616L193.998 397.395L190.408 408.831L187.874 408.002L191.646 396.616ZM397.607 195.016L409.065 191.481L409.849 194.09L398.341 197.441C398.099 196.59 397.851 195.768 397.607 195.016ZM196.371 398.099C197.155 398.34 197.909 398.575 198.741 398.789L195.487 410.318L192.938 409.592L196.371 398.099ZM399.064 199.771L410.605 196.594C410.834 197.449 411.066 198.317 411.309 199.225L399.707 202.221C399.491 201.363 399.279 200.573 399.064 199.771ZM201.176 399.405L203.568 400.019L200.679 411.648L198.077 410.935L201.176 399.405ZM400.246 204.6L411.894 201.775C412.123 202.63 412.352 203.485 412.502 204.361L400.821 207.011C400.632 206.202 400.444 205.393 400.246 204.6ZM205.934 400.64C206.733 400.834 207.542 401.012 208.347 401.177L205.846 412.886C204.977 412.695 204.108 412.505 203.249 412.298L205.934 400.64ZM401.397 209.423L413.127 206.956L413.674 209.629L401.908 211.908C401.682 211.066 401.53 210.289 401.344 209.437L401.397 209.423ZM210.784 401.694L213.206 402.159L211.019 413.938L208.405 413.44L210.784 401.694ZM402.298 214.313L414.084 212.212C414.258 213.105 414.408 213.981 414.535 214.84L402.716 216.766C402.58 215.943 402.447 215.133 402.298 214.313ZM215.647 402.59L218.082 402.995L216.263 414.831L213.64 414.406L215.647 402.59ZM403.091 219.218L414.939 217.453C415.072 218.319 415.196 219.202 415.307 220.089L403.432 221.649C403.307 220.865 403.214 220.045 403.091 219.218ZM220.545 403.35L222.998 403.666L221.534 415.561C220.66 415.457 219.769 415.343 218.889 415.213L220.545 403.35ZM403.722 224.152L415.616 222.769C415.723 223.643 415.821 224.533 415.902 225.413L403.988 226.618C403.922 225.79 403.842 224.965 403.748 224.145L403.722 224.152ZM225.405 403.965L227.87 404.221L226.831 416.129L224.181 415.867L225.405 403.965ZM404.241 229.087L416.174 228.061C416.255 228.942 416.326 229.839 416.381 230.726L404.438 231.558L404.241 229.087ZM230.386 404.407L232.87 404.573L232.143 416.539L229.484 416.349L230.386 404.407ZM404.648 234.025L416.607 233.358C416.661 234.246 416.703 235.137 416.744 236.028L404.68 236.512C404.669 235.683 404.625 234.835 404.582 234.043L404.648 234.025ZM235.412 404.695L237.891 404.792L237.517 416.762C236.638 416.744 235.739 416.703 234.853 416.658L235.412 404.695ZM404.788 239.02L416.763 238.73C416.788 239.611 416.803 240.509 416.815 241.394L404.833 241.503C404.816 240.648 404.805 239.819 404.788 239.02ZM240.313 404.89L242.801 404.915L242.781 416.888C241.896 416.9 241.017 416.882 240.125 416.867L240.313 404.89ZM404.835 243.984L416.81 244.06C416.808 244.949 416.794 245.841 416.776 246.72L404.798 246.475C404.807 245.613 404.826 244.79 404.828 243.958L404.835 243.984ZM404.754 248.94L416.728 249.383C416.696 250.265 416.652 251.151 416.607 252.037L404.643 251.422C404.656 250.573 404.688 249.747 404.717 248.908L404.754 248.94ZM404.487 253.889L416.447 254.702C416.386 255.578 416.328 256.468 416.254 257.348L404.293 256.323C404.346 255.52 404.408 254.7 404.453 253.87L404.487 253.889ZM404.091 258.83L416.008 260.007C415.921 260.891 415.833 261.774 415.729 262.648L403.822 261.299L404.091 258.83ZM403.516 263.735L415.403 265.273C415.286 266.15 415.168 267.027 415.038 267.908L403.172 266.238C403.279 265.377 403.388 264.573 403.516 263.735ZM402.816 268.645L414.603 270.548L414.165 273.174L402.336 271.114C402.523 270.289 402.655 269.464 402.79 268.652L402.816 268.645ZM401.953 273.528L413.724 275.788C413.56 276.649 413.386 277.528 413.196 278.396L401.448 275.905C401.604 275.117 401.779 274.351 401.914 273.539L401.953 273.528ZM400.942 278.381L412.639 280.999L412.035 283.585L400.391 280.798L400.942 278.381ZM399.794 283.2L411.401 286.165C411.181 287.028 410.961 287.89 410.685 288.754L399.128 285.606L399.794 283.2ZM398.497 287.988L410.001 291.305C409.765 292.158 409.511 293.001 409.271 293.841L397.817 290.341L398.497 287.988ZM397.044 292.719L408.445 296.389C408.179 297.235 407.899 298.086 407.616 298.923L396.265 295.071C396.509 294.3 396.764 293.513 397.018 292.726L397.044 292.719ZM395.471 297.37L406.756 301.395L405.846 303.894L394.615 299.7C394.87 298.969 395.158 298.201 395.429 297.423L395.471 297.37Z" fill="#01B0F1" stroke="#01B0F1" stroke-opacity="0.2" stroke-width="2" mask="url(#path-1-inside-1_410_650)"/>
<path d="M393.656 302.17L404.817 306.524L404.32 307.771L393.252 303.293L393.656 302.17Z" fill="#01B0F1"/>
<path d="M404.166 306.806L404.041 307.118L393.884 303.009L393.952 302.822L404.166 306.806Z" stroke="#01B0F1" stroke-opacity="0.2"/>
<path d="M429.376 311.726C412.999 356.184 381.261 393.318 339.895 416.418C298.53 439.519 250.266 447.062 203.825 437.685C157.384 428.308 115.828 402.629 86.6668 365.289C57.5054 327.948 42.6616 281.409 44.8176 234.079C46.9736 186.75 65.9872 141.753 98.4228 107.218C130.858 72.6832 174.577 50.8888 221.678 45.7729C268.779 40.657 316.157 52.5569 355.251 79.3225C394.345 106.088 422.576 145.954 434.843 191.717" stroke="#01B0F1" stroke-opacity="0.2" stroke-width="0.79" stroke-linecap="round" stroke-linejoin="round"/>
<path d="M243.234 44.0188C286.929 44.1588 329.346 58.6383 363.944 85.2247C398.543 111.811 423.402 149.027 434.687 191.135" stroke="#01B0F1" stroke-opacity="0.2" stroke-width="8.47" stroke-miterlimit="10"/>
<path d="M51.2148 293.886C41.3558 257.111 42.2518 218.287 53.7956 182.061C65.3394 145.836 87.042 113.743 116.306 89.6246" stroke="#01B0F1" stroke-opacity="0.2" stroke-width="3.18" stroke-miterlimit="10"/>
<path d="M352.575 408.808C325.369 426.683 294.177 437.655 261.752 440.756C229.326 443.856 196.666 438.989 166.652 426.584" stroke="#01B0F1" stroke-opacity="0.2" stroke-width="8.47" stroke-miterlimit="10"/>
</svg>
